<svg data-v-6e2f00a0="" width="512" height="512" viewBox="0 0 512 512" fill="none" xmlns="http://www.w3.org/2000/svg" xmlns:xlink="http://www.w3.org/1999/xlink" class="h-full w-full"><rect id="r4" width="512" height="512" x="0" y="0" rx="256" fill="#000000" stroke="#000000" stroke-width="0" stroke-opacity="100%" paint-order="stroke"></rect><!----><clipPath id="clip"><use xlink:href="#r4"></use></clipPath><defs><linearGradient id="linearGradient" gradientUnits="userSpaceOnUse" gradientTransform="rotate(33)" style="transform-origin: center center;"><stop stop-color="#9945ff"></stop><stop offset="1" stop-color="#14f195"></stop></linearGradient><radialGradient id="glare" cx="0" cy="0" r="1" gradientUnits="userSpaceOnUse" gradientTransform="translate(256) rotate(90) scale(512)"><stop stop-color="white"></stop><stop offset="1" stop-color="white" stop-opacity="0"></stop></radialGradient></defs><svg data-v-c3ad5561="" data-v-6e2f00a0="" xmlns="http://www.w3.org/2000/svg" xmlns:xlink="http://www.w3.org/1999/xlink" aria-hidden="true" role="img" class="icon" x="57.5" y="57.5" width="397px" height="397px" viewBox="0 0 24 24" style="color: rgb(255, 255, 255);"><path fill="currentColor" d="M17.753 14a2.25 2.25 0 0 1 2.25 2.25v.904A3.75 3.75 0 0 1 18.696 20c-1.565 1.344-3.806 2-6.696 2c-2.89 0-5.128-.656-6.69-2a3.75 3.75 0 0 1-1.306-2.843v-.908A2.25 2.25 0 0 1 6.254 14h11.5Zm0 1.5h-11.5a.75.75 0 0 0-.75.75v.907c0 .655.287 1.278.784 1.706C7.545 19.945 9.441 20.5 12 20.5c2.56 0 4.458-.557 5.72-1.64a2.25 2.25 0 0 0 .783-1.707v-.905a.75.75 0 0 0-.75-.75ZM11.9 2.006L12 2a.75.75 0 0 1 .743.648l.007.102l-.001.749h3.5a2.25 2.25 0 0 1 2.25 2.25v4.505a2.25 2.25 0 0 1-2.25 2.25h-8.5a2.25 2.25 0 0 1-2.25-2.25V5.75A2.25 2.25 0 0 1 7.75 3.5l3.5-.001V2.75a.75.75 0 0 1 .649-.743L12 2l-.102.007ZM16.25 5h-8.5a.75.75 0 0 0-.75.75v4.504c0 .414.336.75.75.75h8.5a.75.75 0 0 0 .75-.75V5.75a.75.75 0 0 0-.75-.75Zm-6.5 1.5a1.25 1.25 0 1 1 0 2.498a1.25 1.25 0 0 1 0-2.498Zm4.492 0a1.25 1.25 0 1 1 0 2.498a1.25 1.25 0 0 1 0-2.498Z"></path></svg></svg>