<svg data-v-6e2f00a0="" width="512" height="512" viewBox="0 0 512 512" fill="none" xmlns="http://www.w3.org/2000/svg" xmlns:xlink="http://www.w3.org/1999/xlink" class="h-full w-full"><rect id="r4" width="512" height="512" x="0" y="0" rx="256" fill="#ffffff" stroke="#000000" stroke-width="0" stroke-opacity="100%" paint-order="stroke"></rect><!----><clipPath id="clip"><use xlink:href="#r4"></use></clipPath><defs><linearGradient id="linearGradient" gradientUnits="userSpaceOnUse" gradientTransform="rotate(33)" style="transform-origin: center center;"><stop stop-color="#9945ff"></stop><stop offset="1" stop-color="#14f195"></stop></linearGradient><radialGradient id="glare" cx="0" cy="0" r="1" gradientUnits="userSpaceOnUse" gradientTransform="translate(256) rotate(90) scale(512)"><stop stop-color="white"></stop><stop offset="1" stop-color="white" stop-opacity="0"></stop></radialGradient></defs><svg data-v-c3ad5561="" data-v-6e2f00a0="" xmlns="http://www.w3.org/2000/svg" xmlns:xlink="http://www.w3.org/1999/xlink" aria-hidden="true" role="img" class="icon" x="107.5" y="107.5" width="297px" height="297px" viewBox="0 0 8 8" style="color: rgb(0, 0, 0);"><path fill="currentColor" d="M4 0C2.9 0 2 1.12 2 2.5S2.9 5 4 5s2-1.12 2-2.5S5.1 0 4 0zM1.91 5C.85 5.05 0 5.92 0 7v1h8V7c0-1.08-.84-1.95-1.91-2c-.54.61-1.28 1-2.09 1c-.81 0-1.55-.39-2.09-1z"></path></svg></svg>